<?xml version="1.0" encoding="utf-8" standalone="no"?>
<!DOCTYPE svg PUBLIC "-//W3C//DTD SVG 1.1//EN"
  "http://www.w3.org/Graphics/SVG/1.1/DTD/svg11.dtd">
<svg xmlns:xlink="http://www.w3.org/1999/xlink" width="371.52pt" height="148.32pt" viewBox="0 0 371.52 148.32" xmlns="http://www.w3.org/2000/svg" version="1.1">
 <metadata>
  <rdf:RDF xmlns:dc="http://purl.org/dc/elements/1.1/" xmlns:cc="http://creativecommons.org/ns#" xmlns:rdf="http://www.w3.org/1999/02/22-rdf-syntax-ns#">
   <cc:Work>
    <dc:type rdf:resource="http://purl.org/dc/dcmitype/StillImage"/>
    <dc:date>2022-04-25T19:01:54.602985</dc:date>
    <dc:format>image/svg+xml</dc:format>
    <dc:creator>
     <cc:Agent>
      <dc:title>Matplotlib v3.5.1, https://matplotlib.org/</dc:title>
     </cc:Agent>
    </dc:creator>
   </cc:Work>
  </rdf:RDF>
 </metadata>
 <defs>
  <style type="text/css">*{stroke-linejoin: round; stroke-linecap: butt}</style>
 </defs>
 <g id="figure_1">
  <g id="patch_1">
   <path d="M 0 148.32 
L 371.52 148.32 
L 371.52 0 
L 0 0 
z
" style="fill: #ffffff"/>
  </g>
  <g id="axes_1">
   <g id="patch_2">
    <path d="M 51.84 141.12 
C 63.678666 141.12 75.034045 136.416448 83.405247 128.045247 
C 91.776448 119.674045 96.48 108.318666 96.48 96.48 
C 96.48 84.641334 91.776448 73.285955 83.405247 64.914753 
C 75.034045 56.543552 63.678666 51.84 51.84 51.84 
C 40.001334 51.84 28.645955 56.543552 20.274753 64.914753 
C 11.903552 73.285955 7.2 84.641334 7.2 96.48 
C 7.2 108.318666 11.903552 119.674045 20.274753 128.045247 
C 28.645955 136.416448 40.001334 141.12 51.84 141.12 
z
" clip-path="url(#p0a8cba5909)" style="fill: #426174"/>
   </g>
   <g id="patch_3">
    <path d="M 51.84 118.8 
C 57.759333 118.8 63.437023 116.448224 67.622623 112.262623 
C 71.808224 108.077023 74.16 102.399333 74.16 96.48 
C 74.16 90.560667 71.808224 84.882977 67.622623 80.697377 
C 63.437023 76.511776 57.759333 74.16 51.84 74.16 
C 45.920667 74.16 40.242977 76.511776 36.057377 80.697377 
C 31.871776 84.882977 29.52 90.560667 29.52 96.48 
C 29.52 102.399333 31.871776 108.077023 36.057377 112.262623 
C 40.242977 116.448224 45.920667 118.8 51.84 118.8 
z
" clip-path="url(#p0a8cba5909)" style="fill: #ffffff"/>
   </g>
   <g id="patch_4">
    <path d="M 141.12 141.12 
C 152.958666 141.12 164.314045 136.416448 172.685247 128.045247 
C 181.056448 119.674045 185.76 108.318666 185.76 96.48 
C 185.76 84.641334 181.056448 73.285955 172.685247 64.914753 
C 164.314045 56.543552 152.958666 51.84 141.12 51.84 
C 129.281334 51.84 117.925955 56.543552 109.554753 64.914753 
C 101.183552 73.285955 96.48 84.641334 96.48 96.48 
C 96.48 108.318666 101.183552 119.674045 109.554753 128.045247 
C 117.925955 136.416448 129.281334 141.12 141.12 141.12 
z
" clip-path="url(#p0a8cba5909)" style="fill: #426174"/>
   </g>
   <g id="patch_5">
    <path d="M 141.12 118.8 
C 147.039333 118.8 152.717023 116.448224 156.902623 112.262623 
C 161.088224 108.077023 163.44 102.399333 163.44 96.48 
C 163.44 90.560667 161.088224 84.882977 156.902623 80.697377 
C 152.717023 76.511776 147.039333 74.16 141.12 74.16 
C 135.200667 74.16 129.522977 76.511776 125.337377 80.697377 
C 121.151776 84.882977 118.8 90.560667 118.8 96.48 
C 118.8 102.399333 121.151776 108.077023 125.337377 112.262623 
C 129.522977 116.448224 135.200667 118.8 141.12 118.8 
z
" clip-path="url(#p0a8cba5909)" style="fill: #ffffff"/>
   </g>
   <g id="patch_6">
    <path d="M 230.4 141.12 
C 242.238666 141.12 253.594045 136.416448 261.965247 128.045247 
C 270.336448 119.674045 275.04 108.318666 275.04 96.48 
C 275.04 84.641334 270.336448 73.285955 261.965247 64.914753 
C 253.594045 56.543552 242.238666 51.84 230.4 51.84 
C 218.561334 51.84 207.205955 56.543552 198.834753 64.914753 
C 190.463552 73.285955 185.76 84.641334 185.76 96.48 
C 185.76 108.318666 190.463552 119.674045 198.834753 128.045247 
C 207.205955 136.416448 218.561334 141.12 230.4 141.12 
z
" clip-path="url(#p0a8cba5909)" style="fill: #426174"/>
   </g>
   <g id="patch_7">
    <path d="M 230.4 118.8 
C 236.319333 118.8 241.997023 116.448224 246.182623 112.262623 
C 250.368224 108.077023 252.72 102.399333 252.72 96.48 
C 252.72 90.560667 250.368224 84.882977 246.182623 80.697377 
C 241.997023 76.511776 236.319333 74.16 230.4 74.16 
C 224.480667 74.16 218.802977 76.511776 214.617377 80.697377 
C 210.431776 84.882977 208.08 90.560667 208.08 96.48 
C 208.08 102.399333 210.431776 108.077023 214.617377 112.262623 
C 218.802977 116.448224 224.480667 118.8 230.4 118.8 
z
" clip-path="url(#p0a8cba5909)" style="fill: #ffffff"/>
   </g>
   <g id="patch_8">
    <path d="M 319.68 141.12 
C 331.518666 141.12 342.874045 136.416448 351.245247 128.045247 
C 359.616448 119.674045 364.32 108.318666 364.32 96.48 
C 364.32 84.641334 359.616448 73.285955 351.245247 64.914753 
C 342.874045 56.543552 331.518666 51.84 319.68 51.84 
C 307.841334 51.84 296.485955 56.543552 288.114753 64.914753 
C 279.743552 73.285955 275.04 84.641334 275.04 96.48 
C 275.04 108.318666 279.743552 119.674045 288.114753 128.045247 
C 296.485955 136.416448 307.841334 141.12 319.68 141.12 
z
" clip-path="url(#p0a8cba5909)" style="fill: #426174"/>
   </g>
   <g id="patch_9">
    <path d="M 319.68 118.8 
C 325.599333 118.8 331.277023 116.448224 335.462623 112.262623 
C 339.648224 108.077023 342 102.399333 342 96.48 
C 342 90.560667 339.648224 84.882977 335.462623 80.697377 
C 331.277023 76.511776 325.599333 74.16 319.68 74.16 
C 313.760667 74.16 308.082977 76.511776 303.897377 80.697377 
C 299.711776 84.882977 297.36 90.560667 297.36 96.48 
C 297.36 102.399333 299.711776 108.077023 303.897377 112.262623 
C 308.082977 116.448224 313.760667 118.8 319.68 118.8 
z
" clip-path="url(#p0a8cba5909)" style="fill: #ffffff"/>
   </g>
   <g id="patch_10">
    <path d="M 7.2 96.48 
L 29.52 96.48 
L 29.52 7.2 
L 7.2 7.2 
z
" clip-path="url(#p0a8cba5909)" style="fill: #426174"/>
   </g>
   <g id="patch_11">
    <path d="M 185.76 96.48 
L 208.08 96.48 
L 208.08 7.2 
L 185.76 7.2 
z
" clip-path="url(#p0a8cba5909)" style="fill: #426174"/>
   </g>
   <g id="patch_12">
    <path d="M 208.08 96.48 
L 275.04 96.48 
L 275.04 7.2 
L 208.08 7.2 
z
" clip-path="url(#p0a8cba5909)" style="fill: #ffffff"/>
   </g>
   <g id="patch_13">
    <path d="M 342 96.48 
L 364.32 96.48 
L 364.32 141.12 
L 342 141.12 
z
" clip-path="url(#p0a8cba5909)" style="fill: #426174"/>
   </g>
  </g>
 </g>
 <defs>
  <clipPath id="p0a8cba5909">
   <rect x="7.2" y="7.2" width="357.12" height="133.92"/>
  </clipPath>
 </defs>
</svg>
